#N canvas 525 47 1169 903 12;
#X msg 110 -47 close;
#X msg 110 -68 devices;
#X floatatom 230 38 5 0 0 0 - - -;
#X floatatom 270 38 5 0 0 0 - - -;
#X floatatom 311 38 5 0 0 0 - - -;
#X obj 233 -23 serial_print any;
#X obj 233 -44 comport 1 115200;
#X obj 321 587 dac~;
#X obj 290 479 bp~ 100 10;
#X obj 327 530 hip~;
#X obj 327 551 *~ 0.5;
#X obj 216 443 noise~;
#X obj 32 157 cnv 15 150 260 empty empty tono 20 12 0 14 -204800 -66577
0;
#X obj 58 252 autoscale;
#X floatatom 58 273 5 0 0 0 - - -;
#X floatatom 41 211 5 0 0 0 - - -;
#X floatatom 86 213 5 0 0 0 - - -;
#X obj 122 213 bng 15 250 50 0 empty empty empty 17 7 0 10 -262144
-1 -1;
#X text 41 192 min;
#X text 86 194 max;
#X text 122 194 reset;
#X obj 122 234 vsl 15 128 100 1800 0 0 empty empty empty 0 -9 0 10
-262144 -1 -1 6544 1;
#X obj 222 157 cnv 15 150 260 empty empty filtro 20 12 0 14 -204800
-66577 0;
#X obj 248 252 autoscale;
#X floatatom 248 273 5 0 0 0 - - -;
#X floatatom 234 215 5 0 0 0 - - -;
#X floatatom 276 213 5 0 0 0 - - -;
#X obj 312 213 bng 15 250 50 0 empty empty empty 17 7 0 10 -262144
-1 -1;
#X text 234 196 min;
#X text 276 194 max;
#X text 312 194 reset;
#X obj 422 157 cnv 15 150 260 empty empty resonancia 20 12 0 14 -204800
-66577 0;
#X obj 448 252 autoscale;
#X floatatom 448 273 5 0 0 0 - - -;
#X floatatom 435 213 5 0 0 0 - - -;
#X floatatom 476 213 5 0 0 0 - - -;
#X obj 512 213 bng 15 250 50 0 empty empty empty 17 7 0 10 -262144
-1 -1;
#X text 435 194 min;
#X text 476 194 max;
#X text 512 194 reset;
#X text 477 456 volume;
#X obj 331 254 vsl 15 128 2 20 0 0 empty empty empty 0 -9 0 10 -262144
-1 -1 2853 1;
#X obj 548 254 vsl 15 128 0 1800 0 0 empty empty empty 0 -9 0 10 -262144
-1 -1 6135 1;
#X floatatom 95 103 5 0 0 0 - - -;
#X obj 59 83 pack;
#X floatatom 95 83 5 0 0 0 - - -;
#X obj 59 104 line;
#X floatatom 281 113 5 0 0 0 - - -;
#X obj 241 84 pack;
#X floatatom 281 84 5 0 0 0 - - -;
#X obj 243 113 line;
#X floatatom 484 103 5 0 0 0 - - -;
#X obj 448 83 pack;
#X floatatom 484 83 5 0 0 0 - - -;
#X obj 448 104 line;
#X obj 37 9 hradio 15 1 0 8 empty empty empty 0 -8 0 10 -262144 -1
-1 0;
#X msg 110 -18 open \$1;
#X floatatom 34 -18 5 0 0 0 - - -;
#X msg 95 176 1800;
#X msg 25 173 100;
#X msg 227 178 2;
#X msg 300 170 20;
#X msg 422 177 0;
#X msg 516 174 1800;
#X msg 31 -47 17;
#X obj 206 10 unpack f f f f;
#X floatatom 377 36 5 0 0 0 - - -;
#X floatatom 628 99 5 0 0 0 - - -;
#X obj 592 79 pack;
#X floatatom 628 79 5 0 0 0 - - -;
#X obj 592 100 line;
#X obj 641 159 cnv 15 150 260 empty empty volumen 20 12 0 14 -204800
-66577 0;
#X obj 667 254 autoscale;
#X floatatom 667 275 5 0 0 0 - - -;
#X floatatom 654 215 5 0 0 0 - - -;
#X floatatom 695 215 5 0 0 0 - - -;
#X obj 731 215 bng 15 250 50 0 empty empty empty 17 7 0 10 -262144
-1 -1;
#X text 654 196 min;
#X text 695 196 max;
#X text 731 196 reset;
#X obj 767 256 vsl 15 128 0 1 0 0 empty empty empty 0 -9 0 10 -262144
-1 -1 5 1;
#X msg 641 179 0;
#X msg 735 176 1;
#X connect 0 0 6 0;
#X connect 1 0 6 0;
#X connect 2 0 44 0;
#X connect 3 0 48 0;
#X connect 4 0 52 0;
#X connect 5 0 65 0;
#X connect 6 0 5 0;
#X connect 8 0 9 0;
#X connect 9 0 10 0;
#X connect 10 0 7 0;
#X connect 10 0 7 1;
#X connect 11 0 8 0;
#X connect 13 0 14 0;
#X connect 14 0 21 0;
#X connect 15 0 13 1;
#X connect 16 0 13 2;
#X connect 17 0 13 3;
#X connect 21 0 8 1;
#X connect 23 0 24 0;
#X connect 24 0 41 0;
#X connect 25 0 23 1;
#X connect 26 0 23 2;
#X connect 27 0 23 3;
#X connect 32 0 33 0;
#X connect 33 0 42 0;
#X connect 34 0 32 1;
#X connect 35 0 32 2;
#X connect 36 0 32 3;
#X connect 41 0 8 2;
#X connect 42 0 9 1;
#X connect 43 0 13 0;
#X connect 44 0 46 0;
#X connect 45 0 44 1;
#X connect 46 0 43 0;
#X connect 47 0 23 0;
#X connect 48 0 50 0;
#X connect 49 0 48 1;
#X connect 50 0 47 0;
#X connect 51 0 32 0;
#X connect 52 0 54 0;
#X connect 53 0 52 1;
#X connect 54 0 51 0;
#X connect 55 0 56 0;
#X connect 56 0 6 0;
#X connect 57 0 56 0;
#X connect 58 0 16 0;
#X connect 59 0 15 0;
#X connect 60 0 25 0;
#X connect 61 0 26 0;
#X connect 62 0 34 0;
#X connect 63 0 35 0;
#X connect 64 0 57 0;
#X connect 65 0 2 0;
#X connect 65 1 3 0;
#X connect 65 2 4 0;
#X connect 65 3 66 0;
#X connect 66 0 68 0;
#X connect 67 0 72 0;
#X connect 68 0 70 0;
#X connect 69 0 68 1;
#X connect 70 0 67 0;
#X connect 72 0 73 0;
#X connect 73 0 80 0;
#X connect 74 0 72 1;
#X connect 75 0 72 2;
#X connect 76 0 72 3;
#X connect 80 0 10 1;
#X connect 81 0 74 0;
#X connect 82 0 75 0;
